<svg width="45" height="45" viewBox="0 0 45 45" fill="none" xmlns="http://www.w3.org/2000/svg">
<path d="M22.5 0C34.9264 0 45 10.0736 45 22.5C45 34.9264 34.9264 45 22.5 45C10.0736 45 0 34.9264 0 22.5C0 10.0736 10.0736 0 22.5 0Z" fill="#FF8500"/>
<path d="M35.9357 30.5701C35.8824 30.4144 35.7581 30.1742 35.6693 30.0363C35.1097 29.1914 32.1035 26.8387 30.6025 26.0693C29.7455 25.629 29.1105 25.4823 28.6397 25.6201C28.1335 25.7625 27.8671 25.9981 27.0189 27.0522C26.677 27.4747 26.3262 27.8705 26.2329 27.9327C26.002 28.0929 25.5491 28.2219 25.2293 28.2219C24.4877 28.2174 23.1422 27.7371 22.1075 27.1055C21.3038 26.6164 20.2736 25.7403 19.4831 24.873C18.5506 23.8545 17.9156 22.9562 17.4138 21.9422C16.7655 20.6391 16.6012 19.843 16.872 19.2604C16.9386 19.1136 17.0275 18.958 17.0674 18.909C17.1074 18.8646 17.5248 18.5221 17.9866 18.1485C18.8925 17.4281 19.0391 17.2635 19.2078 16.7699C19.4209 16.1428 19.3632 15.5024 19.0346 14.8575C18.7815 14.3683 18.1198 13.3009 17.6403 12.6116C17.0053 11.7044 15.4244 9.76531 15.1091 9.50284C14.5407 9.04036 13.8125 8.96026 13.0086 9.27164C12.1605 9.60075 10.5707 10.8816 9.89131 11.7755C9.2785 12.5849 9.04322 13.1586 9.00766 13.9147C8.97659 14.5373 9.02986 14.7952 9.35848 15.5913C11.9296 21.8354 15.7663 26.8209 21.0374 30.7791C23.7906 32.8471 26.6459 34.4215 29.6078 35.4978C31.3352 36.1248 32.0857 36.1559 32.9693 35.6401C33.3423 35.4177 34.266 34.4704 34.7811 33.7811C35.6337 32.6336 35.949 32.1044 36.0378 31.6819C36.1 31.3928 36.0512 30.8903 35.9357 30.5701V30.5701Z" fill="white"/>
</svg>
