<svg width="46" height="45" viewBox="0 0 46 45" fill="none" xmlns="http://www.w3.org/2000/svg">
<path d="M23 45.0001C35.4264 45.0001 45.5 34.9264 45.5 22.5001C45.5 10.0737 35.4264 6.10352e-05 23 6.10352e-05C10.5736 6.10352e-05 0.5 10.0737 0.5 22.5001C0.5 34.9264 10.5736 45.0001 23 45.0001Z" fill="url(#paint0_linear)"/>
<path d="M8.87953 23.6007C11.5098 22.1518 14.4458 20.9427 17.1891 19.7273C21.9087 17.7366 26.647 15.7804 31.4331 13.9592C32.3644 13.6489 34.0375 13.3454 34.2016 14.7254C34.1118 16.6788 33.7422 18.6208 33.4887 20.5627C32.8453 24.8332 32.1017 29.0891 31.3765 33.3455C31.1267 34.7633 29.3506 35.4973 28.2141 34.5899C25.483 32.7451 22.7309 30.9183 20.0346 29.0308C19.1514 28.1333 19.9704 26.8445 20.7592 26.2036C23.0087 23.9868 25.3942 22.1034 27.5261 19.772C28.1012 18.3833 26.402 19.5537 25.8416 19.9123C22.7621 22.0344 19.758 24.2861 16.5112 26.1511C14.8528 27.0641 12.9199 26.2839 11.2622 25.7744C9.77583 25.1591 7.59781 24.5391 8.87938 23.6008L8.87953 23.6007Z" fill="white"/>
<defs>
<linearGradient id="paint0_linear" x1="17.3776" y1="1.87656" x2="6.12762" y2="28.1251" gradientUnits="userSpaceOnUse">
<stop stop-color="#37AEE2"/>
<stop offset="1" stop-color="#1E96C8"/>
</linearGradient>
</defs>
</svg>
