<svg width="45" height="45" viewBox="0 0 45 45" fill="none" xmlns="http://www.w3.org/2000/svg">
<path d="M22.5 0C34.9264 0 45 10.0736 45 22.5C45 34.9264 34.9264 45 22.5 45C10.0736 45 0 34.9264 0 22.5C0 10.0736 10.0736 0 22.5 0Z" fill="#7F4DA0"/>
<path d="M28.4946 19.6485C28.3851 18.7594 28.1119 18.0613 27.6266 17.443C26.9965 16.6468 26.1912 16.17 24.999 15.8872C24.2221 15.6987 23.9081 15.7203 23.6271 15.977C23.3654 16.2175 23.3143 16.6996 23.5143 17.0118C23.655 17.2384 23.8173 17.3196 24.2686 17.4082C24.8697 17.5187 25.285 17.6623 25.6629 17.8783C26.4648 18.3414 26.8383 19.066 26.8783 20.2391C26.897 20.79 26.9446 20.9593 27.137 21.1547C27.4935 21.5118 28.1281 21.4423 28.3973 21.015C28.4961 20.8539 28.5112 20.7838 28.5216 20.4098C28.5285 20.1782 28.5185 19.8335 28.4946 19.6485Z" fill="white"/>
<path d="M31.6357 20.6509C31.4773 17.9271 30.412 15.7357 28.5053 14.1939C27.431 13.3275 26.1325 12.7318 24.7091 12.4421C24.1877 12.3385 23.2278 12.2545 23.0631 12.3025C22.9076 12.347 22.6878 12.5153 22.5899 12.6675C22.4863 12.8325 22.4629 13.2009 22.5513 13.414C22.6939 13.7703 22.9593 13.8962 23.7025 13.9612C24.8482 14.0614 26.03 14.464 26.9229 15.0599C27.9422 15.7384 28.7525 16.6664 29.2768 17.7569C29.7297 18.6939 30.0083 20.0442 30.0005 21.2534C29.998 21.6907 30.0655 21.9377 30.2414 22.1182C30.5069 22.3959 30.8938 22.4566 31.2353 22.2722C31.6138 22.0731 31.7023 21.7237 31.6357 20.6509Z" fill="white"/>
<path d="M35.1115 31.1404C35.0582 30.9847 34.9339 30.7445 34.8451 30.6067C34.2855 29.7617 31.2792 27.409 29.7783 26.6396C28.9213 26.1994 28.2862 26.0526 27.8155 26.1904C27.3093 26.3328 27.0428 26.5684 26.1947 27.6225C25.8528 28.045 25.502 28.4408 25.4087 28.5031C25.1778 28.6632 24.7248 28.7922 24.4051 28.7922C23.6635 28.7877 22.318 28.3074 21.2833 27.6758C20.4796 27.1867 19.4494 26.3106 18.6589 25.4433C17.7263 24.4249 17.0914 23.5265 16.5896 22.5125C15.9413 21.2094 15.777 20.4133 16.0478 19.8307C16.1144 19.6839 16.2033 19.5283 16.2432 19.4793C16.2832 19.4349 16.7006 19.0924 17.1624 18.7188C18.0683 17.9984 18.2148 17.8339 18.3836 17.3402C18.5967 16.7131 18.539 16.0727 18.2104 15.4278C17.9573 14.9386 17.2956 13.8712 16.8161 13.1819C16.181 12.2747 14.6002 10.3356 14.2848 10.0732C13.7164 9.61067 12.9882 9.53057 12.1844 9.84195C11.3363 10.1711 9.74652 11.4519 9.06709 12.3458C8.45428 13.1552 8.219 13.7289 8.18344 14.485C8.15237 15.1076 8.20564 15.3655 8.53426 16.1616C11.1054 22.4057 14.9421 27.3912 20.2131 31.3494C22.9663 33.4174 25.8217 34.9918 28.7836 36.0681C30.511 36.6951 31.2614 36.7263 32.1451 36.2104C32.5181 35.988 33.4418 35.0407 33.9569 34.3514C34.8095 33.2039 35.1248 32.6747 35.2136 32.2522C35.2758 31.9632 35.2269 31.4606 35.1115 31.1404Z" fill="white"/>
<path d="M34.8333 21.2765C34.7764 19.7358 34.517 18.472 33.9761 17.063C33.442 15.677 32.9016 14.7726 31.8808 13.5494C30.9158 12.4024 30.1662 11.7475 28.9775 11.0185C27.3189 10.0028 25.3005 9.3307 23.0385 9.04803C22.2671 8.94923 22.0926 8.95629 21.8559 9.1142C21.3973 9.41334 21.4034 10.1595 21.8635 10.4541C22.0158 10.5479 22.1509 10.582 22.7679 10.6628C23.7152 10.7903 24.3242 10.9105 25.047 11.1077C27.8811 11.8824 30.0605 13.466 31.5175 15.8167C32.7368 17.7761 33.243 19.7356 33.1711 22.2382C33.1461 23.0843 33.1643 23.2332 33.2936 23.4365C33.5413 23.8154 34.1945 23.8903 34.5295 23.5759C34.738 23.3843 34.7773 23.2404 34.8184 22.5163C34.8381 22.1386 34.8423 21.5809 34.8333 21.2765Z" fill="white"/>
</svg>
