<svg width="45" height="44" viewBox="0 0 45 44" fill="none" xmlns="http://www.w3.org/2000/svg">
<path d="M22.6 44C34.7503 44 44.6 34.1503 44.6 22C44.6 9.84977 34.7503 3.05176e-05 22.6 3.05176e-05C10.4497 3.05176e-05 0.600006 9.84977 0.600006 22C0.600006 34.1503 10.4497 44 22.6 44Z" fill="#25D366"/>
<path fill-rule="evenodd" clip-rule="evenodd" d="M23.3252 34.2398H23.3198C21.1303 34.2391 18.979 33.6898 17.0683 32.6475L10.1334 34.4667L11.9893 27.6878C10.8445 25.7038 10.2421 23.4534 10.243 21.1478C10.2459 13.9349 16.1144 8.0667 23.3251 8.0667C26.8246 8.06821 30.1092 9.43057 32.5791 11.9033C35.0489 14.3759 36.4084 17.6627 36.407 21.1581C36.4041 28.3693 30.5379 34.2369 23.3252 34.2398ZM17.3896 30.2793L17.7867 30.5149C19.4561 31.5056 21.3697 32.0298 23.3208 32.0305H23.3252C29.3182 32.0305 34.1958 27.1528 34.1982 21.1573C34.1994 18.252 33.0695 15.5202 31.0166 13.4649C28.9637 11.4097 26.2337 10.2773 23.3295 10.2763C17.3319 10.2763 12.4542 15.1536 12.4518 21.1485C12.451 23.203 13.0258 25.2039 14.1142 26.935L14.3728 27.3464L13.2743 31.3588L17.3896 30.2793ZM29.4681 23.9747C29.6961 24.0849 29.8501 24.1593 29.9158 24.269C29.9975 24.4053 29.9975 25.0598 29.7252 25.8234C29.4527 26.5869 28.1469 27.2838 27.5188 27.3776C26.9557 27.4618 26.243 27.4969 25.46 27.2481C24.9853 27.0975 24.3765 26.8963 23.5966 26.5595C20.5322 25.2364 18.4614 22.2663 18.07 21.705C18.0426 21.6657 18.0234 21.6382 18.0127 21.6239L18.01 21.6204C17.8371 21.3896 16.678 19.8431 16.678 18.2425C16.678 16.7369 17.4176 15.9477 17.758 15.5844C17.7813 15.5595 17.8028 15.5366 17.822 15.5157C18.1216 15.1884 18.4758 15.1066 18.6937 15.1066C18.9115 15.1066 19.1297 15.1086 19.3201 15.1182C19.3436 15.1193 19.3681 15.1192 19.3934 15.1191C19.5838 15.1179 19.8213 15.1165 20.0556 15.6793C20.1457 15.8958 20.2776 16.2169 20.4167 16.5556C20.698 17.2403 21.0087 17.9969 21.0634 18.1063C21.1451 18.27 21.1996 18.4608 21.0906 18.679C21.0743 18.7117 21.0592 18.7426 21.0447 18.7721C20.9629 18.9392 20.9027 19.0621 20.7638 19.2243C20.7092 19.288 20.6527 19.3568 20.5963 19.4255C20.4838 19.5625 20.3714 19.6994 20.2735 19.797C20.1098 19.96 19.9395 20.1368 20.1301 20.464C20.3208 20.7913 20.9768 21.8617 21.9486 22.7284C22.9931 23.6601 23.901 24.0539 24.3612 24.2535C24.451 24.2925 24.5238 24.3241 24.5772 24.3508C24.904 24.5145 25.0947 24.4871 25.2853 24.269C25.476 24.0509 26.1025 23.3145 26.3203 22.9873C26.5382 22.6602 26.7562 22.7147 27.0558 22.8237C27.3554 22.9329 28.9625 23.7236 29.2894 23.8872C29.3532 23.9191 29.4128 23.948 29.4681 23.9747Z" fill="#FDFDFD"/>
</svg>
